<?xml version="1.0" standalone="no"?>
<!DOCTYPE svg PUBLIC "-//W3C//DTD SVG 20010904//EN"
 "http://www.w3.org/TR/2001/REC-SVG-20010904/DTD/svg10.dtd">
<svg version="1.0" xmlns="http://www.w3.org/2000/svg"
 width="1000.000000pt" height="1000.000000pt" viewBox="0 0 1000.000000 1000.000000"
 preserveAspectRatio="xMidYMid meet">
<metadata>
Created by potrace 1.14, written by Peter Selinger 2001-2017
</metadata>
<g transform="translate(0.000000,1000.000000) scale(0.100000,-0.100000)"
fill="#000000" stroke="none">
<path d="M5079 9803 c-168 -176 -324 -433 -369 -608 -24 -91 -24 -190 -2 -275
8 -30 15 -60 16 -66 1 -6 17 -41 35 -78 46 -93 133 -184 216 -224 l66 -33 -7
-57 c-3 -31 -8 -65 -10 -76 -2 -10 -6 -44 -9 -75 -3 -31 -12 -90 -20 -131 -16
-85 -25 -141 -30 -185 -2 -16 -10 -70 -19 -120 -8 -49 -17 -106 -20 -125 -8
-48 -28 -172 -31 -190 -3 -14 -24 -16 -35 -2 -3 4 -23 20 -45 37 -22 16 -42
31 -45 34 -3 4 -44 35 -92 71 l-86 65 1 50 c2 70 -32 135 -118 221 -84 85
-160 137 -238 163 -57 20 -244 64 -322 76 -60 9 -281 16 -299 9 -23 -9 -13
-36 39 -109 131 -185 367 -401 500 -461 61 -26 175 -53 210 -49 120 15 133 19
176 52 17 14 3 24 235 -168 77 -65 141 -123 141 -131 1 -33 14 -207 18 -238 2
-19 7 -66 10 -105 3 -38 8 -99 11 -135 10 -112 10 -164 2 -208 -4 -23 -10 -70
-14 -105 -4 -34 -8 -69 -10 -77 -1 -8 -3 -19 -3 -25 -1 -9 -33 22 -111 111
-19 22 -63 71 -97 109 -115 130 -113 128 -100 144 23 27 13 131 -18 191 -67
132 -179 245 -300 304 -178 87 -423 164 -517 162 -50 -1 -53 -2 -50 -26 4 -32
69 -159 128 -252 115 -179 231 -312 328 -376 110 -72 250 -100 342 -68 26 9
50 12 53 8 8 -12 110 -129 136 -156 11 -12 52 -57 90 -101 38 -44 77 -89 87
-99 17 -19 19 -77 4 -152 -4 -19 -12 -78 -21 -159 -10 -93 -17 -140 -21 -144
-2 -2 -674 -4 -1495 -5 l-1491 -1 -18 -23 c-18 -22 -19 -90 -18 -1815 0 -985
4 -1819 8 -1852 15 -109 22 -160 25 -185 8 -55 46 -212 71 -291 68 -216 187
-462 300 -619 l32 -45 -176 -1 c-414 -3 -621 -17 -845 -59 -52 -10 -135 -53
-152 -79 -35 -53 5 -153 96 -244 219 -222 731 -409 1444 -528 54 -9 306 -44
350 -49 28 -3 69 -8 93 -10 23 -3 63 -7 90 -10 26 -3 65 -7 87 -10 49 -5 132
-12 245 -20 47 -4 105 -8 130 -11 25 -2 97 -6 160 -10 63 -3 142 -7 175 -9
372 -24 1626 -24 1920 0 28 2 106 7 175 10 69 4 141 8 160 10 19 1 78 6 130 9
52 4 113 9 135 11 22 2 69 7 105 10 36 3 81 7 100 10 19 2 58 7 85 10 28 3 68
8 90 10 22 3 56 7 75 10 118 14 262 36 425 65 183 33 189 34 345 72 479 115
827 266 995 434 70 69 103 123 111 184 5 36 2 44 -25 69 -34 31 -119 63 -216
80 -54 9 -88 13 -220 26 -84 8 -399 18 -597 19 -134 1 -204 4 -200 11 3 6 33
51 65 100 142 215 288 582 323 810 2 17 9 60 15 97 15 96 17 115 20 188 1 36
3 68 5 72 3 3 19 2 37 -3 82 -25 272 -7 371 35 105 44 221 139 294 241 66 92
147 297 166 420 4 22 9 54 12 70 15 83 21 197 19 355 -4 254 -43 408 -143 565
-73 115 -167 196 -293 253 -110 51 -195 70 -335 78 -60 3 -113 7 -119 8 -7 2
-10 259 -10 744 1 686 -1 743 -17 764 l-17 23 -1468 1 c-1330 1 -1468 3 -1468
17 0 19 153 207 169 207 6 0 31 -6 56 -14 90 -27 277 1 395 61 127 65 403 335
472 464 l23 44 -23 8 c-21 8 -271 4 -312 -6 -11 -2 -41 -7 -66 -11 -110 -16
-197 -37 -284 -68 -204 -74 -356 -269 -311 -400 9 -24 9 -37 2 -44 -6 -6 -32
-35 -58 -65 -25 -30 -56 -66 -68 -79 l-21 -25 6 60 c8 75 15 142 20 175 2 14
7 52 11 85 3 33 8 67 9 75 3 19 17 136 20 172 2 26 58 103 130 182 6 6 44 51
85 101 41 49 88 104 104 122 l29 33 33 -20 c117 -73 398 62 522 250 70 106
132 221 179 331 42 99 71 204 60 216 -29 28 -378 -120 -549 -233 -96 -63 -185
-154 -226 -232 -38 -72 -62 -173 -52 -219 4 -18 5 -33 1 -35 -4 -2 -40 -43
-81 -93 -41 -49 -77 -92 -80 -95 -3 -3 -39 -45 -79 -93 -41 -48 -75 -86 -77
-85 -2 3 -11 68 -29 213 -3 22 -7 56 -10 75 -5 37 -11 77 -20 150 -3 25 -7 54
-9 65 -2 11 -7 52 -11 90 -4 39 -8 72 -10 73 -3 3 17 29 50 66 6 6 33 38 60
71 28 33 55 65 60 71 31 35 102 120 113 135 12 17 14 17 48 -3 113 -67 385 69
507 254 97 148 222 434 229 525 3 38 3 38 -32 35 -19 -1 -42 -5 -50 -9 -8 -3
-17 -7 -20 -7 -38 -7 -255 -111 -335 -160 -78 -48 -163 -108 -196 -138 -38
-36 -109 -121 -109 -132 0 -4 -8 -18 -17 -33 -10 -14 -18 -31 -20 -37 -1 -6
-8 -31 -16 -56 -8 -26 -13 -71 -11 -106 3 -52 0 -64 -22 -89 -45 -53 -58 -68
-153 -182 -51 -62 -94 -113 -95 -113 -2 0 13 136 28 255 3 22 8 63 11 90 3 28
7 64 9 80 3 17 8 57 12 90 3 33 8 67 9 75 2 8 6 47 10 85 6 71 21 195 30 250
5 28 8 30 53 31 100 1 174 65 200 174 22 90 24 107 28 227 3 93 0 151 -15 240
-11 65 -22 134 -25 153 -8 70 -27 206 -32 235 -3 17 -7 43 -9 60 -18 137 -78
255 -130 255 -6 0 -36 -26 -66 -57z m3115 -5614 c65 -24 158 -84 203 -131 113
-118 162 -287 158 -541 -6 -329 -105 -556 -306 -704 -68 -50 -177 -102 -220
-105 l-33 -3 -1 765 c0 421 0 768 2 771 3 8 121 -23 197 -52z"/>
</g>
</svg>
